HIERARCHY
ROOT Hips
{
	OFFSET 0.00000 0.00000 0.00000
	CHANNELS 6 Xposition Yposition Zposition Zrotation Yrotation Xrotation 
	JOINT LHipJoint
	{
		OFFSET 0 0 0
		CHANNELS 3 Zrotation Yrotation Xrotation
		JOINT LeftHip
		{
			OFFSET 1.55766 -1.60504 1.11378
			CHANNELS 3 Zrotation Yrotation Xrotation
			JOINT LeftKnee
			{
				OFFSET 2.29047 -6.29302 0.00000
				CHANNELS 3 Zrotation Yrotation Xrotation
				JOINT LeftAnkle
				{
					OFFSET 2.52265 -6.93093 0.00000
					CHANNELS 3 Zrotation Yrotation Xrotation
					JOINT LeftToe
					{
						OFFSET 0.17633 -0.48446 2.02656
						CHANNELS 3 Zrotation Yrotation Xrotation
						End Site
						{
							OFFSET 0.00000 -0.00000 1.04989
						}
					}
				}
			}
		}
	}
	JOINT RHipJoint
	{
		OFFSET 0 0 0
		CHANNELS 3 Zrotation Yrotation Xrotation
		JOINT RightHip
		{
			OFFSET -1.48599 -1.60504 1.11378
			CHANNELS 3 Zrotation Yrotation Xrotation
			JOINT RightKnee
			{
				OFFSET -2.27280 -6.24448 0.00000
				CHANNELS 3 Zrotation Yrotation Xrotation
				JOINT RightAnkle
				{
					OFFSET -2.50834 -6.89161 0.00000
					CHANNELS 3 Zrotation Yrotation Xrotation
					JOINT RightToe
					{
						OFFSET -0.26967 -0.74090 2.08741
						CHANNELS 3 Zrotation Yrotation Xrotation
						End Site
						{
							OFFSET -0.00000 -0.00000 1.10614
						}
					}
				}
			}
		}
	}
	JOINT lowerback
	{
		OFFSET 0 0 0
		CHANNELS 3 Zrotation Yrotation Xrotation
		JOINT Chest
		{
			OFFSET 0.06481 2.02437 -0.08472
			CHANNELS 3 Zrotation Yrotation Xrotation
			JOINT Chest2
			{
				OFFSET 0.00015 1.96711 0.18069
				CHANNELS 3 Zrotation Yrotation Xrotation
				JOINT lowerneck
				{
					OFFSET 0 0 0
					CHANNELS 3 Zrotation Yrotation Xrotation
					JOINT Neck
					{
						OFFSET -0.29961 1.68293 -0.13041
						CHANNELS 3 Zrotation Yrotation Xrotation
						JOINT Head
						{
							OFFSET 0.59697 1.61501 -0.14669
							CHANNELS 3 Zrotation Yrotation Xrotation
							End Site
							{
								OFFSET 0.22973 1.74906 -0.10148
							}
						}
					}
				}
				JOINT LeftCollar
				{
					OFFSET 0 0 0
					CHANNELS 3 Zrotation Yrotation Xrotation
					JOINT LeftShoulder
					{
						OFFSET 3.37968 1.02893 0.31147
CHANNELS 3 Zrotation Xrotation Yrotation
						JOINT LeftElbow
						{
OFFSET 0 -5.198070 -0.000000
CHANNELS 3 Zrotation Xrotation Yrotation
							JOINT LeftWrist
							{
OFFSET 0 -3.093700 -0.000000
CHANNELS 3 Zrotation Xrotation Yrotation
								JOINT lhand
								{
									OFFSET 0 0 0
CHANNELS 3 Zrotation Xrotation Yrotation
									JOINT LFingers
									{
OFFSET 0 -0.672630 -0.000000
CHANNELS 3 Zrotation Xrotation Yrotation
										End Site
										{
OFFSET 0 -0.542290 -0.000000
										}
									}
								}
								JOINT LThumb
								{
OFFSET 0 0.000000 0.000000
CHANNELS 3 Zrotation Xrotation Yrotation
									End Site
									{
OFFSET 0 -0.550570 0.550570
									}
								}
							}
						}
					}
				}
				JOINT RightCollar
				{
					OFFSET 0 0 0
					CHANNELS 3 Zrotation Yrotation Xrotation
					JOINT RightShoulder
					{
						OFFSET -3.38254 0.96355 -0.16120
CHANNELS 3 Zrotation Xrotation Yrotation
						JOINT RightElbow
						{
OFFSET 0 -5.452220 -0.000000
CHANNELS 3 Zrotation Xrotation Yrotation
							JOINT RightWrist
							{
OFFSET 0 -3.012840 -0.000000
CHANNELS 3 Zrotation Xrotation Yrotation
								JOINT rhand
								{
									OFFSET 0 0 0
CHANNELS 3 Zrotation Xrotation Yrotation
									JOINT RFingers
									{
OFFSET 0 -0.622300 -0.000000
CHANNELS 3 Zrotation Xrotation Yrotation
										End Site
										{
OFFSET 0 -0.501710 -0.000000
										}
									}
								}
								JOINT RThumb
								{
OFFSET 0 0.000000 0.000000
CHANNELS 3 Zrotation Xrotation Yrotation
									End Site
									{
OFFSET 0 -0.509370 0.509370
									}
								}
							}
						}
					}
				}
			}
		}
	}
}
MOTION
Frames: 9
Frame Time: .0083333
6.2710 16.5401 -16.6355 -184.1170 -143.5500 -160.3310 0.0000 0.0000 0.0000 -11.2813 -12.6903 -41.8868 6.0099 14.4379 45.0215 0.7025 -5.8944 -14.9384 1.4706 -7.6633 -21.6960 0.0000 0.0000 0.0000 21.8956 9.5956 -20.1337 -2.2806 -9.4276 27.1421 -1.4207 -0.8549 -22.8578 -0.9947 6.3472 -17.7952 8.1394 3.1377 -0.5770 -1.4210 4.3725 -7.7848 -6.2732 1.5653 -7.1854 -31.4401 -6.8068 7.9196 35.4983 -13.3684 2.3376 18.0093 -7.5601 4.2882 0.0000 0.0000 0.0000 9.0568 13.5891 -18.3619 19.4054 -29.9193 5.2315 28.1644 -50.8316 8.4275 0.0 0.0 0.0 -7.1250 0.0 0.0 0.9246 20.4406 0.5436 0.0000 0.0000 0.0000 -13.492 8.533 22.4519 -12.4434 -20.4663 -2.2549 -14.7617 22.6435 11.1054 0.0 0.0 0.0 7.1250 0.0 -0.0 -12.5340 -48.7842 178.8131
6.2630 16.5367 -16.6354 -184.1950 -144.7220 -160.3060 0.0000 0.0000 0.0000 -11.1122 -12.6016 -42.2157 5.9897 14.4184 44.9404 0.7258 -5.0835 -15.1815 1.4483 -7.6075 -21.5280 0.0000 0.0000 0.0000 22.2708 9.0133 -20.0952 -2.2530 -9.3744 26.9736 -1.4136 -1.2168 -22.9400 -0.9684 6.2651 -17.5557 8.1700 3.0656 -0.4757 -1.3080 4.2964 -7.8205 -6.1761 1.5229 -7.3031 -31.3699 -6.9712 8.0458 35.5804 -13.6390 2.2782 17.9999 -7.7070 4.3582 0.0000 0.0000 0.0000 8.8745 13.8938 -18.237 19.0379 -29.4657 5.0495 28.1596 -50.4374 8.3901 0.0 0.0 0.0 -7.1250 0.0 0.0 0.9236 20.4832 0.542 0.0000 0.0000 0.0000 -13.5152 8.3292 21.7766 -12.3901 -20.387 -2.2363 -14.7681 22.9699 11.0976 0.0 0.0 0.0 7.1250 0.0 -0.0 -12.5296 -48.7921 178.811
6.2539 16.5330 -16.6328 -184.2920 -145.8820 -160.2750 0.0000 0.0000 0.0000 -10.8950 -12.5564 -42.5193 5.9624 14.3918 44.8308 0.7432 -4.2814 -15.4043 1.4258 -7.5506 -21.3570 0.0000 0.0000 0.0000 22.6649 8.4283 -20.0343 -2.2215 -9.3130 26.7795 -1.4054 -1.5741 -23.0187 -0.9446 6.1899 -17.3365 8.1976 2.9920 -0.3820 -1.1885 4.2180 -7.8534 -6.0694 1.4803 -7.4140 -31.2899 -7.1405 8.1580 35.6608 -13.9115 2.2188 17.9851 -7.8535 4.4308 0.0000 -0.0000 0.0000 8.6707 14.2101 -18.09 18.6842 -29.0243 4.8767 28.1557 -50.0641 8.3638 0.0 0.0 0.0 -7.1250 0.0 0.0 0.9224 20.5131 0.5408 0.0000 -0.0000 0.0000 -13.5268 8.1194 21.1405 -12.3509 -20.3288 -2.2227 -14.7718 23.3011 11.093 0.0 0.0 0.0 7.1250 0.0 -0.0 -12.5263 -48.796 178.8101
6.2441 16.5289 -16.6276 -184.4050 -147.0300 -160.2460 0.0000 0.0000 0.0000 -10.6458 -12.5401 -42.7963 5.9291 14.3593 44.6965 0.7551 -3.4891 -15.6082 1.4237 -7.5453 -21.3414 0.0000 0.0000 0.0000 23.0735 7.8436 -19.9451 -2.1859 -9.2430 26.5584 -1.3960 -1.9287 -23.0924 -0.9235 6.1224 -17.1400 8.2250 2.9177 -0.2913 -1.0679 4.1383 -7.8800 -5.9604 1.4379 -7.5165 -31.1911 -7.3173 8.2527 35.7412 -14.1871 2.1542 17.9632 -7.9997 4.5050 0.0000 0.0000 0.0000 8.4574 14.5369 -17.9389 18.3527 -28.6064 4.7169 28.1568 -49.7169 8.3434 0.0 0.0 0.0 -7.1250 0.0 0.0 0.9244 20.5361 0.5415 0.0000 0.0000 0.0000 -13.5174 7.8991 20.5235 -12.3253 -20.2908 -2.2138 -14.77 23.6247 11.0601 0.0 0.0 0.0 7.1250 0.0 -0.0 -12.5347 -48.8292 178.7989
6.2333 16.5248 -16.6200 -184.5100 -148.1610 -160.2300 0.0000 0.0000 0.0000 -10.3893 -12.5531 -43.0461 5.8899 14.3208 44.5381 0.7619 -2.7507 -15.7879 1.4284 -7.5573 -21.3774 0.0000 0.0000 0.0000 23.4725 7.2560 -19.8340 -2.1470 -9.1659 26.3156 -1.3860 -2.2737 -23.1626 -0.9041 6.0595 -16.9571 8.2393 2.8467 -0.2125 -0.9561 4.0609 -7.8994 -5.8522 1.3984 -7.6035 -31.0811 -7.4950 8.3528 35.8328 -14.4603 2.0681 17.9437 -8.1454 4.5717 -0.0000 -0.0000 0.0000 8.2358 14.8785 -17.7837 18.0476 -28.218 4.5717 28.1696 -49.3962 8.3444 0.0 0.0 0.0 -7.1250 0.0 0.0 0.9336 20.5339 0.5469 -0.0000 -0.0000 0.0000 -13.4709 7.6584 19.8466 -12.2991 -20.2517 -2.2047 -14.7671 23.9716 10.9378 0.0 0.0 0.0 7.1250 0.0 -0.0 -12.5628 -48.9523 178.7576
6.2220 16.5207 -16.6098 -184.6220 -149.2760 -160.2200 0.0000 0.0000 0.0000 -10.1150 -12.5939 -43.2705 5.8464 14.2779 44.3623 0.7659 -2.0761 -15.9607 1.4414 -7.5900 -21.4755 0.0000 0.0000 0.0000 23.8733 6.6692 -19.7015 -2.1060 -9.0834 26.0565 -1.3757 -2.6084 -23.2318 -0.8872 6.0042 -16.7967 8.2497 2.7734 -0.1427 -0.8440 3.9793 -7.9148 -5.7403 1.3577 -7.6817 -30.9647 -7.6685 8.4548 35.9329 -14.7248 1.9678 17.9274 -8.2872 4.6312 -0.0000 -0.0000 0.0000 8.0004 15.2441 -17.61 17.7627 -27.8523 4.4378 28.171 -49.0906 8.3652 0.0 0.0 0.0 -7.1250 0.0 0.0 0.9333 20.5103 0.5472 -0.0000 -0.0000 0.0000 -13.406 7.4128 19.196 -12.2897 -20.2377 -2.2015 -14.7524 24.29 10.8152 0.0 0.0 0.0 7.1250 0.0 -0.0 -12.6036 -49.0771 178.7142
6.2101 16.5164 -16.5973 -184.7270 -150.3740 -160.2150 0.0000 0.0000 0.0000 -9.8426 -12.6529 -43.4806 5.8000 14.2317 44.1738 0.7680 -1.4739 -16.1233 1.4619 -7.6415 -21.6305 0.0000 0.0000 0.0000 24.2624 6.0886 -19.5587 -2.0638 -8.9978 25.7885 -1.3652 -2.9331 -23.2996 -0.8730 5.9572 -16.6604 8.2462 2.6986 -0.0816 -0.7371 3.8940 -7.9309 -5.6252 1.3162 -7.7559 -30.8438 -7.8327 8.5770 36.0488 -14.9757 1.8422 17.9209 -8.4248 4.6761 0.0000 0.0000 0.0000 7.7595 15.6347 -17.4396 17.4985 -27.5103 4.3151 28.1791 -48.8116 8.3941 0.0 0.0 0.0 -7.1250 0.0 0.0 0.9373 20.477 0.5503 0.0000 0.0000 0.0000 -13.316 7.1721 18.5618 -12.2992 -20.2518 -2.2048 -14.7368 24.5662 10.6838 0.0 0.0 0.0 7.1250 0.0 -0.0 -12.6468 -49.2106 178.6676
6.1981 16.5116 -16.5823 -184.8370 -151.4420 -160.2100 0.0000 0.0000 0.0000 -9.5686 -12.7057 -43.6877 5.7528 14.1844 43.9813 0.7698 -0.9682 -16.2780 1.4763 -7.6775 -21.7387 0.0000 0.0000 0.0000 24.6476 5.5148 -19.4127 -2.0217 -8.9111 25.5177 -1.3548 -3.2376 -23.3642 -0.8619 5.9202 -16.5531 8.2349 2.6259 -0.0277 -0.6306 3.8105 -7.9472 -5.5056 1.2763 -7.8261 -30.7204 -7.9904 8.7126 36.1761 -15.2155 1.6918 17.9211 -8.5586 4.7086 0.0000 -0.0000 0.0000 7.5062 16.0484 -17.2745 17.2567 -27.195 4.204 28.2102 -48.5384 8.3917 0.0 0.0 0.0 -7.1250 0.0 0.0 0.9597 20.4769 0.5634 0.0000 -0.0000 0.0000 -13.2076 6.939 17.9663 -12.3320 -20.3007 -2.2161 -14.7175 24.7843 10.5632 0.0 0.0 0.0 7.1250 0.0 -0.0 -12.6930 -49.3333 178.6237
6.1860 16.5062 -16.5648 -184.9480 -152.4840 -160.2020 0.0000 0.0000 0.0000 -9.2958 -12.7676 -43.8910 5.7051 14.1364 43.7864 0.7707 -0.5329 -16.4187 1.4852 -7.6996 -21.8054 0.0000 0.0000 0.0000 25.0245 4.9454 -19.2727 -1.9805 -8.8254 25.2508 -1.3452 -3.5218 -23.4282 -0.8536 5.8922 -16.4721 8.2166 2.5539 0.0184 -0.5266 3.7268 -7.9649 -5.3840 1.2370 -7.8930 -30.5974 -8.1418 8.8610 36.3139 -15.4442 1.5180 17.9284 -8.6888 4.7293 -0.0000 -0.0000 0.0000 7.2468 16.4714 -17.1261 17.0240 -26.8894 4.0982 28.2298 -48.2601 8.3853 0.0 0.0 0.0 -7.1250 0.0 0.0 0.9743 20.4826 0.5718 -0.0000 -0.0000 0.0000 -13.0806 6.7119 17.413 -12.3886 -20.3848 -2.2358 -14.697 24.9456 10.475 0.0 0.0 0.0 7.1250 0.0 -0.0 -12.7329 -49.4228 178.5909
